<?xml version="1.0" standalone="no"?><!DOCTYPE svg PUBLIC "-//W3C//DTD SVG 1.1//EN" "http://www.w3.org/Graphics/SVG/1.1/DTD/svg11.dtd"><svg t="1587567873037" class="icon" viewBox="0 0 1024 1024" version="1.1" xmlns="http://www.w3.org/2000/svg" p-id="6268" xmlns:xlink="http://www.w3.org/1999/xlink" width="200" height="200"><defs><style type="text/css"></style></defs><path d="M572.235294 993.882353a60.235294 60.235294 0 0 1-60.235294-60.235294v-301.176471a60.235294 60.235294 0 0 1 60.235294-60.235294h301.176471a60.235294 60.235294 0 0 1 60.235294 60.235294v301.176471a60.235294 60.235294 0 0 1-60.235294 60.235294z m60.235294-120.470588h180.705883v-180.705883h-180.705883z m-542.117647 120.470588a60.235294 60.235294 0 0 1-60.235294-60.235294v-301.176471a60.235294 60.235294 0 0 1 60.235294-60.235294h301.176471a60.235294 60.235294 0 0 1 60.235294 60.235294v301.176471a60.235294 60.235294 0 0 1-60.235294 60.235294z m60.235294-120.470588h180.705883v-180.705883h-180.705883z m361.411765-602.352941a240.941176 240.941176 0 1 1 240.941176 240.941176 240.941176 240.941176 0 0 1-240.941176-240.941176z m120.470588 0a120.470588 120.470588 0 1 0 120.470588-120.470589 120.470588 120.470588 0 0 0-120.470588 120.470589z m-542.117647 240.941176a60.235294 60.235294 0 0 1-60.235294-60.235294v-301.176471a60.235294 60.235294 0 0 1 60.235294-60.235294h301.176471a60.235294 60.235294 0 0 1 60.235294 60.235294v301.176471a60.235294 60.235294 0 0 1-60.235294 60.235294z m60.235294-120.470588h180.705883v-180.705883h-180.705883z" fill="#8F9BB3" p-id="6269"></path></svg>