<?xml version="1.0" standalone="no"?><!DOCTYPE svg PUBLIC "-//W3C//DTD SVG 1.1//EN" "http://www.w3.org/Graphics/SVG/1.1/DTD/svg11.dtd"><svg t="1587565810457" class="icon" viewBox="0 0 1024 1024" version="1.1" xmlns="http://www.w3.org/2000/svg" p-id="3346" xmlns:xlink="http://www.w3.org/1999/xlink" width="200" height="200"><defs><style type="text/css"></style></defs><path d="M932.977778 762.311111v-62.236444h-41.187556a141.312 141.312 0 0 0-19.342222-46.648889l29.127111-29.013334L857.656889 580.266667l-29.013333 29.013333a143.473778 143.473778 0 0 0-46.648889-19.228444v-40.96h-62.122667v41.187555a142.336 142.336 0 0 0-46.648889 19.342222L644.209778 580.266667l-43.918222 43.918222 29.127111 29.013333a141.312 141.312 0 0 0-19.342223 46.648889H568.888889V762.311111h41.187555a142.336 142.336 0 0 0 19.342223 46.648889l-29.127111 29.013333 43.918222 43.918223 29.013333-29.127112a141.312 141.312 0 0 0 46.648889 19.342223v41.187555h62.122667v-41.301333a142.336 142.336 0 0 0 46.648889-19.342222l29.013333 29.127111 43.918222-43.918222-29.127111-29.013334a141.312 141.312 0 0 0 19.342222-46.648889z m-87.267556-31.061333A94.776889 94.776889 0 1 1 750.933333 636.359111a94.890667 94.890667 0 0 1 94.776889 94.776889z" fill="#C0D043" p-id="3347"></path><path d="M361.699556 913.180444H91.022222v-796.444444h757.76v323.925333H796.444444V169.073778H143.36v691.768889h218.339556v52.337777z" fill="#C0D043" p-id="3348"></path><path d="M242.346667 276.024889h52.337777v52.337778h-52.337777zM344.746667 276.024889h352.711111v52.337778h-352.711111zM242.346667 488.789333h52.337777v52.337778h-52.337777zM344.746667 488.789333h329.955555v52.337778h-329.955555zM242.346667 701.553778h52.337777v52.337778h-52.337777zM344.746667 701.553778h159.288889v52.337778h-159.288889z" fill="#C0D043" p-id="3349"></path></svg>