<?xml version="1.0" standalone="no"?><!DOCTYPE svg PUBLIC "-//W3C//DTD SVG 1.1//EN" "http://www.w3.org/Graphics/SVG/1.1/DTD/svg11.dtd"><svg t="1587568181695" class="icon" viewBox="0 0 1024 1024" version="1.1" xmlns="http://www.w3.org/2000/svg" p-id="7817" xmlns:xlink="http://www.w3.org/1999/xlink" width="200" height="200"><defs><style type="text/css"></style></defs><path d="M433.6 99.2h167.2c30.8 0 55.8 21.1 55.8 47v1.3c0 26-25 47-55.8 47H433.6c-30.8 0-55.8-21-55.8-47v-1.3c0-25.9 25-47 55.8-47zM449 413.8H322.4c-11.8-0.7-23.1 4.3-29.2 12.8-6.2 8.6-6.2 19.4-0.1 28 6.1 8.6 17.4 13.6 29.2 12.9 56.3 0.1 112.5 0 168.7 0h84.3c14.9 0.2 28-8.3 31.5-20.4 2.4-8.1 0.3-16.7-5.8-23.2s-15.5-10.2-25.4-10c-42.2-0.2-84.4-0.1-126.6-0.1z m62.9 323.3h119.9c24 0 47.9 0.1 71.8-0.1 8.4 0 16.4-2.8 22.2-7.9 5.9-5.1 9.1-11.9 8.9-19 0-15.7-14-26.8-33.7-26.8H322.7c-10.1-0.3-19.7 3.5-25.8 10.2-7.9 7.9-9.4 19.1-3.8 28.3 5 9.7 16.6 15.8 29.1 15.2l189.7 0.1z m-0.1-134.6c62 0 123.8 0 185.8-0.1 4 0.1 7.9-0.2 11.8-0.7 13.9-2.3 24.2-12.1 25.3-24 1.3-17-12.9-29.2-34.4-29.2H324.1c-2.4 0-4.8 0.2-7.2 0.5-12.5 1.2-22.7 8.8-25.7 19.1-3.8 10.1 0 21.1 9.7 27.8 6.8 4.8 15.6 7.2 24.4 6.7h186.5v-0.1zM294.2 171.9v23.7c0 38.9 37.5 70.5 83.7 70.5h278.6c46.2 0 83.7-31.6 83.7-70.5v-24.2c34.5-0.1 56.4-0.1 58.1-0.1 18.2 0.2 36.8-0.6 54.3 2.5 41.9 7.3 71.6 39.2 73.1 75.4l0.1 6.1v586.4c0 35.3-18.7 61.3-56.3 77-12.3 4.9-25.9 7.4-39.6 7.2H195c-25.6 0.2-50.3-8.4-68.3-23.8-18.1-15.4-28.1-36.3-27.7-58V253.9c0-42.5 32.8-75.7 82.3-81.8 16.6-1.6 33.3-1.7 50-0.4 3.1 0.1 26.8 0.2 62.9 0.2z" fill="" p-id="7818"></path></svg>